<?xml version="1.0" standalone="no"?>
<!DOCTYPE svg PUBLIC "-//W3C//DTD SVG 20010904//EN"
 "http://www.w3.org/TR/2001/REC-SVG-20010904/DTD/svg10.dtd">
<svg version="1.0" xmlns="http://www.w3.org/2000/svg"
 width="700.000000pt" height="700.000000pt" viewBox="0 0 700.000000 700.000000"
 preserveAspectRatio="xMidYMid meet">
<metadata>
Created by potrace 1.14, written by Peter Selinger 2001-2017
</metadata>
<g transform="translate(0.000000,700.000000) scale(0.100000,-0.100000)"
fill="#000000" stroke="none">
<path d="M3378 6981 c-100 -33 -170 -82 -234 -167 l-26 -33 -164 0 c-253 -1
-365 -37 -489 -156 l-64 -62 -573 0 c-495 -1 -582 -3 -642 -17 -205 -49 -372
-224 -409 -431 -19 -104 -17 -5605 2 -5685 43 -184 181 -336 362 -402 l64 -23
2270 -2 c2500 -3 2325 -7 2462 59 133 65 251 218 284 368 10 42 12 699 12
2835 0 1529 -2 2798 -4 2820 -10 108 -82 247 -171 330 -56 52 -177 120 -228
129 -14 2 -43 7 -64 11 -22 5 -294 8 -604 8 l-565 1 -46 46 c-86 86 -185 140
-294 160 -26 6 -124 10 -217 11 -150 0 -170 2 -175 17 -8 27 -95 111 -143 140
-68 39 -120 54 -207 58 -59 3 -95 -1 -137 -15z m191 -337 c73 -61 39 -176 -56
-188 -106 -12 -163 120 -82 188 21 18 42 26 69 26 27 0 48 -8 69 -26z m-1277
-639 c1 -5 2 -58 3 -116 1 -62 7 -119 15 -138 28 -68 -45 -64 1190 -64 1235 1
1163 -3 1191 64 8 21 12 68 11 128 0 53 1 105 3 116 4 20 11 20 460 20 l455 0
33 -33 32 -32 2 -2657 c1 -2890 5 -2692 -53 -2730 -24 -15 -180 -16 -2134 -16
-1965 -1 -2110 0 -2134 16 -57 38 -54 -154 -54 2707 0 1601 3 2649 9 2672 7
27 18 40 47 55 35 17 69 18 480 18 287 0 443 -3 444 -10z"/>
<path d="M4918 4705 c-2 -2 -22 -5 -45 -8 -91 -10 -202 -89 -242 -173 -27 -58
-31 -70 -36 -118 -8 -85 25 -184 83 -248 l24 -26 -18 -49 c-9 -26 -20 -52 -24
-58 -4 -5 -17 -37 -30 -70 -13 -33 -29 -73 -36 -90 -7 -16 -99 -239 -204 -495
-239 -581 -213 -527 -250 -528 -70 -2 -152 -35 -201 -81 -19 -18 -22 -18 -57
-1 -35 17 -198 91 -307 140 -27 12 -88 40 -135 62 -47 22 -101 46 -121 54 -35
15 -36 17 -42 79 -11 114 -82 214 -187 264 -76 36 -201 36 -274 1 -71 -34
-140 -108 -166 -177 -27 -71 -30 -171 -6 -227 22 -52 21 -55 -20 -101 -20 -22
-66 -74 -103 -115 -36 -41 -84 -95 -107 -120 -22 -25 -54 -60 -70 -79 -16 -18
-53 -58 -81 -90 -29 -31 -53 -59 -53 -62 0 -4 -24 -1 -52 6 -154 35 -307 -38
-378 -180 -20 -41 -25 -65 -25 -135 0 -73 4 -93 28 -142 32 -65 100 -131 167
-161 34 -16 66 -21 130 -22 74 0 92 4 140 29 147 76 217 238 169 392 -10 32
-19 61 -19 64 0 3 17 23 38 46 33 36 142 158 182 204 39 44 150 168 193 216
43 47 51 52 75 44 78 -25 177 -15 255 27 26 15 47 30 47 34 0 4 8 10 18 13 21
7 49 -4 197 -73 55 -25 179 -82 276 -126 l177 -80 4 -60 c14 -163 140 -283
308 -293 101 -5 171 21 244 91 124 121 132 313 20 446 l-27 32 20 52 c11 29
126 309 255 622 130 314 238 579 242 590 4 16 16 22 44 23 184 12 324 169 309
348 -12 153 -122 274 -275 302 -28 5 -53 8 -54 7z"/>
</g>
</svg>
